<svg id="Layer_1" data-name="Layer 1" xmlns="http://www.w3.org/2000/svg" xmlns:xlink="http://www.w3.org/1999/xlink" viewBox="0 0 100 100"><defs><style>.cls-1{fill:url(#linear-gradient);}.cls-2{fill:url(#linear-gradient-2);}.cls-3{fill:url(#linear-gradient-3);}.cls-4{fill:url(#linear-gradient-4);}.cls-5{fill:url(#linear-gradient-5);}</style><linearGradient id="linear-gradient" x1="34.71" y1="47.26" x2="95" y2="47.26" gradientUnits="userSpaceOnUse"><stop offset="0" stop-color="#6d4a2d"/><stop offset="0.35" stop-color="#fceee3"/><stop offset="1" stop-color="#ba9672"/></linearGradient><linearGradient id="linear-gradient-2" x1="5" y1="65.86" x2="39.42" y2="65.86" xlink:href="#linear-gradient"/><linearGradient id="linear-gradient-3" x1="17.03" y1="68.39" x2="80" y2="68.39" xlink:href="#linear-gradient"/><linearGradient id="linear-gradient-4" x1="17.09" y1="39.23" x2="86.51" y2="39.23" xlink:href="#linear-gradient"/><linearGradient id="linear-gradient-5" x1="5" y1="50" x2="95" y2="50" gradientUnits="userSpaceOnUse"><stop offset="0" stop-color="#fceee3"/><stop offset="0.49" stop-color="#6d4a2d"/><stop offset="1" stop-color="#ba9672"/></linearGradient></defs><path class="cls-1" d="M93.54,63.75c-4,3.14-7.92-.07-11.79-1.68a14.08,14.08,0,0,0-8.37-.55,16.84,16.84,0,0,0-4.83,1.75c-1.53.86-3.18,2.3-5,2.35-3.27.08-.8-4.59-.19-6.06A28.3,28.3,0,0,0,65.12,54c.24-1.24.67-3.43-.12-4.6a4.1,4.1,0,0,0-3.65-1.36c-2.92.54-5,4.55-6.3,6.83-1.95,3.5-3.76,7.07-5.63,10.61l1.46.56c2.4-6.58,3.42-13.57,5.19-20.33C57,42.26,58,38.82,59.2,35.44,60,33.2,61.45,28.18,64.36,28l-1.1-.34c1.66.78,1.33,4,1.19,5.47a20.4,20.4,0,0,1-1.37,5.6,28.45,28.45,0,0,1-2.45,4.79,22.71,22.71,0,0,1-3.93,4.21A45.5,45.5,0,0,1,49.19,54c-3.1,1.91-6.2,3.78-9.37,5.59-1.88,1.07-6.73,3.95-3.7,6.55a4.61,4.61,0,0,0,4.6.54,12.39,12.39,0,0,0,7.35-7c.87-2.25,1.38-5.38.4-7.67-.82-1.93-3-2.67-5-2.83a9.71,9.71,0,0,0-8.8,4.05s1.28.8,1.46.56c2.1-2.85,9.86-7,11.14-1.34a12.14,12.14,0,0,1-3,10.34c-1.41,1.49-3.85,3.37-6,3.55-1.4.13-1.8-1-1.55-2.18a4.33,4.33,0,0,1,2-2.58c3.57-2.53,7.67-4.47,11.4-6.78A36.09,36.09,0,0,0,54,52.35c1.69-1.37,3.08-3.12,4.68-4.58a22.29,22.29,0,0,0,6.72-11.24c.62-2.55,1.66-7.63-1.52-8.88-2.85-1.12-4.56,3.06-5.4,5.14a115.11,115.11,0,0,0-4.9,16.38c-1.3,5.47-2.26,11-4.19,16.32-.06.15,1.36.74,1.46.56,1.87-3.54,3.68-7.11,5.63-10.61.77-1.37,6.74-10.07,7.38-5.2.45,3.4-1.29,7-2.59,10.07-.67,1.56-1.61,3.77,0,5a5.63,5.63,0,0,0,5.64.26c1.47-.64,2.71-1.69,4.17-2.34A18.29,18.29,0,0,1,77,61.79c2.8-.23,4.86.67,7.25,2a19.43,19.43,0,0,0,3.41,1.48c2.54.8,5.17.8,7.33-.91-.06,0-1.15-.81-1.46-.56Z"/><path class="cls-2" d="M6.38,48.58c3.9-.36,6,2.48,9.19,3.91a10.18,10.18,0,0,0,4.82,1c4.86-.31,8.66-4,13.23-5.31a15.74,15.74,0,0,1,4-.62c.58,0,.54-.18.3.36a5,5,0,0,1-.65,1,24,24,0,0,0-2.4,3.94C32.26,58.33,31,64.36,29.45,70.21c-1.72,6.59-4.22,15-12.79,13.89-.19,0,.89.56,1.22.6A9.77,9.77,0,0,0,26,82.2c2.46-2.37,3.41-5.84,4.3-9,1.92-6.84,3.17-14,6.41-20.4.69-1.36,1.94-2.56,2.55-3.91.25-.55.32-.71-.07-1.16-.57-.67-2.09-.77-2.89-.76-4.85.05-8.7,2.94-13,4.78a12.39,12.39,0,0,1-4.53,1.17C16,53,14.3,51.05,12.15,49.71A11.49,11.49,0,0,0,5,48c.14,0,.94.65,1.38.61Z"/><path class="cls-3" d="M17,52.78A34.72,34.72,0,0,0,33.24,78.52,35.9,35.9,0,0,0,63.92,82,34.84,34.84,0,0,0,80,70.06s-1.28-.81-1.46-.57C70.05,80.81,55.12,86.2,41.45,82c-12.65-3.88-21.53-15.7-23-28.66,0-.37-1.46-.51-1.46-.56Z"/><path class="cls-4" d="M83.9,63.21A34.63,34.63,0,0,0,70.48,20.79C58.09,13,41.7,13.25,30,22.34A34.52,34.52,0,0,0,17.09,45.19c0,.29,1.45.63,1.46.56A34.48,34.48,0,0,1,45.44,16.44a33,33,0,0,1,37,19.47,34.59,34.59,0,0,1,0,26.74c-.07.16,1.38.75,1.46.56Z"/><path class="cls-5" d="M93.54,63.75c-4,3.14-7.92-.07-11.79-1.68a14.08,14.08,0,0,0-8.37-.55,16.84,16.84,0,0,0-4.83,1.75c-1.53.86-3.18,2.3-5,2.35-3.27.08-.8-4.59-.19-6.06A28.3,28.3,0,0,0,65.12,54c.24-1.24.67-3.43-.12-4.6a4.1,4.1,0,0,0-3.65-1.36c-2.92.54-5,4.55-6.3,6.83-1.95,3.5-3.76,7.07-5.63,10.61l1.46.56c2.4-6.58,3.42-13.57,5.19-20.33C57,42.26,58,38.82,59.2,35.44,60,33.2,61.45,28.18,64.36,28l-1.1-.34c1.66.78,1.33,4,1.19,5.47a20.4,20.4,0,0,1-1.37,5.6,28.45,28.45,0,0,1-2.45,4.79,22.71,22.71,0,0,1-3.93,4.21A45.5,45.5,0,0,1,49.19,54c-3.1,1.91-6.2,3.78-9.37,5.59-1.88,1.07-6.73,3.95-3.7,6.55a4.61,4.61,0,0,0,4.6.54,12.39,12.39,0,0,0,7.35-7c.87-2.25,1.38-5.38.4-7.67-.82-1.93-3-2.67-5-2.83a9.71,9.71,0,0,0-8.8,4.05s1.28.8,1.46.56c2.1-2.85,9.86-7,11.14-1.34a12.14,12.14,0,0,1-3,10.34c-1.41,1.49-3.85,3.37-6,3.55-1.4.13-1.8-1-1.55-2.18a4.33,4.33,0,0,1,2-2.58c3.57-2.53,7.67-4.47,11.4-6.78A36.09,36.09,0,0,0,54,52.35c1.69-1.37,3.08-3.12,4.68-4.58a22.29,22.29,0,0,0,6.72-11.24c.62-2.55,1.66-7.63-1.52-8.88-2.85-1.12-4.56,3.06-5.4,5.14a115.11,115.11,0,0,0-4.9,16.38c-1.3,5.47-2.26,11-4.19,16.32-.06.15,1.36.74,1.46.56,1.87-3.54,3.68-7.11,5.63-10.61.77-1.37,6.74-10.07,7.38-5.2.45,3.4-1.29,7-2.59,10.07-.67,1.56-1.61,3.77,0,5a5.63,5.63,0,0,0,5.64.26c1.47-.64,2.71-1.69,4.17-2.34A18.29,18.29,0,0,1,77,61.79c2.8-.23,4.86.67,7.25,2a19.43,19.43,0,0,0,3.41,1.48c2.54.8,5.17.8,7.33-.91-.06,0-1.15-.81-1.46-.56Z"/><path class="cls-5" d="M6.38,48.58c3.9-.36,6,2.48,9.19,3.91a10.18,10.18,0,0,0,4.82,1c4.86-.31,8.66-4,13.23-5.31a15.74,15.74,0,0,1,4-.62c.58,0,.54-.18.3.36a5,5,0,0,1-.65,1,24,24,0,0,0-2.4,3.94C32.26,58.33,31,64.36,29.45,70.21c-1.72,6.59-4.22,15-12.79,13.89-.19,0,.89.56,1.22.6A9.77,9.77,0,0,0,26,82.2c2.46-2.37,3.41-5.84,4.3-9,1.92-6.84,3.17-14,6.41-20.4.69-1.36,1.94-2.56,2.55-3.91.25-.55.32-.71-.07-1.16-.57-.67-2.09-.77-2.89-.76-4.85.05-8.7,2.94-13,4.78a12.39,12.39,0,0,1-4.53,1.17C16,53,14.3,51.05,12.15,49.71A11.49,11.49,0,0,0,5,48c.14,0,.94.65,1.38.61Z"/><path class="cls-5" d="M17,52.78A34.72,34.72,0,0,0,33.24,78.52,35.9,35.9,0,0,0,63.92,82,34.84,34.84,0,0,0,80,70.06s-1.28-.81-1.46-.57C70.05,80.81,55.12,86.2,41.45,82c-12.65-3.88-21.53-15.7-23-28.66,0-.37-1.46-.51-1.46-.56Z"/><path class="cls-5" d="M83.9,63.21A34.63,34.63,0,0,0,70.48,20.79C58.09,13,41.7,13.25,30,22.34A34.52,34.52,0,0,0,17.09,45.19c0,.29,1.45.63,1.46.56A34.48,34.48,0,0,1,45.44,16.44a33,33,0,0,1,37,19.47,34.59,34.59,0,0,1,0,26.74c-.07.16,1.38.75,1.46.56Z"/></svg>